<?xml version="1.0" standalone="no"?><!DOCTYPE svg PUBLIC "-//W3C//DTD SVG 1.1//EN" "http://www.w3.org/Graphics/SVG/1.1/DTD/svg11.dtd"><svg t="1492679102611" class="icon" style="" viewBox="0 0 1024 1024" version="1.1" xmlns="http://www.w3.org/2000/svg" p-id="3091" xmlns:xlink="http://www.w3.org/1999/xlink" width="200" height="200"><defs><style type="text/css"></style></defs><path d="M768.32768 220.27264H257.36192C116.2496 220.27264 1.88416 334.63808 1.88416 475.75552v102.1952c0 141.11744 114.36544 255.47776 255.47776 255.47776h510.97088c141.09184 0 255.47776-114.36544 255.47776-255.47776v-102.1952c0-141.11744-114.39104-255.48288-255.48288-255.48288z m0 153.28768c28.21632 0 51.0976 22.85056 51.0976 51.09248 0 28.24192-22.8864 51.0976-51.0976 51.0976a51.07712 51.07712 0 0 1-51.09248-51.0976 51.07712 51.07712 0 0 1 51.09248-51.09248z m-357.67296 204.3904H308.4544v102.1952H206.26432v-102.1952H104.07424v-102.1952h102.19008v-102.1952h102.19008V475.7504h102.20032v102.20032z m255.48288 0c-28.23168 0-51.09248-22.912-51.09248-51.0976a51.072 51.072 0 0 1 51.09248-51.09248 51.08224 51.08224 0 0 1 51.09248 51.09248c0.00512 28.1856-22.87616 51.0976-51.09248 51.0976z m102.19008 102.1952c-28.22144 0-51.09248-22.912-51.09248-51.0976a51.072 51.072 0 0 1 51.09248-51.09248c28.21632 0 51.0976 22.85056 51.0976 51.09248 0.00512 28.1856-22.88128 51.0976-51.0976 51.0976z m102.1952-102.1952c-28.22144 0-51.09248-22.912-51.09248-51.0976a51.07712 51.07712 0 0 1 51.09248-51.09248c28.2112 0 51.09248 22.85568 51.09248 51.09248 0.00512 28.1856-22.88128 51.0976-51.09248 51.0976z" fill="" p-id="3092"></path></svg>